<?xml version="1.0" encoding="UTF-8" standalone="no"?>
<!-- Created with Inkscape (http://www.inkscape.org/) -->

<svg
  width="50mm"
  height="50mm"
  viewBox="0 0 50 50"
  version="1.1"
  id="svg1"
  xml:space="preserve"
  xmlns="http://www.w3.org/2000/svg"
  xmlns:svg="http://www.w3.org/2000/svg"><defs
     id="defs1" /><g
     id="layer1"><path
       style="display:inline;fill:#f36729;fill-opacity:1;stroke:#b74c16;stroke-width:0.917414;stroke-dasharray:none;stroke-opacity:1"
       d="M 21.195997,15.689749 19.560371,5.5048728 24.958171,8.0971464 30.32703,5.5200322 28.655188,15.922346 M 15.689749,28.804003 5.5048728,30.439629 8.0971464,25.041829 5.5200322,19.67297 15.922346,21.344812 m 12.881657,12.965439 1.635626,10.184876 -5.3978,-2.592273 -5.368859,2.577114 1.671842,-10.402314 m 12.965439,-12.881657 10.184876,-1.635626 -2.592273,5.3978 2.577114,5.368859 -10.402314,-1.671842"
       id="path3"
       transform="matrix(1.1956179,0,0,1.1956179,-4.8251032,-4.7828216)" /><path
       style="fill:#e46f81;fill-opacity:1;stroke:#b54a5c;stroke-width:0.917414;stroke-dasharray:none;stroke-opacity:1"
       id="path4"
       d="m 15.748301,20.783165 -7.2274174,-5.17831 5.1062414,-1.940319 1.995806,-5.2272636 5.168074,7.3681136 m -0.0078,18.446313 -5.17831,7.227417 -1.940319,-5.106241 -5.2272636,-1.995806 7.3681136,-5.168074 m 18.446313,0.0078 7.227417,5.17831 -5.106241,1.940319 -1.995806,5.227264 -5.168074,-7.368114 m 0.0078,-18.446313 5.17831,-7.2274174 1.940319,5.1062414 5.227264,1.995806 -7.368114,5.168074"
       transform="matrix(1.1956179,0,0,1.1956179,-4.8251032,-4.7828216)" /><circle
       style="display:inline;fill:#ffda0f;fill-opacity:1;stroke:#7c2902;stroke-width:1.19562;stroke-dasharray:none;stroke-opacity:1"
       id="path2"
       cx="24.986097"
       cy="25.028379"
       r="12.884599" /><path
       style="fill:none;fill-opacity:1;stroke:#7d2507;stroke-width:1.19562;stroke-dasharray:none;stroke-opacity:1"
       d="m 18.367342,27.40548 v 0 c -0.981765,-1.300578 -1.215685,-2.314736 -1.244766,-3.440922 0.116525,-3.712058 2.970085,-4.937527 4.692945,-4.937527 1.722862,0 3.174713,1.411091 3.174713,1.411091 0,0 1.313453,-1.468297 3.036316,-1.468297 1.722859,0 4.734593,1.442953 4.851117,5.15501 -0.02908,1.126186 -0.322316,1.982173 -1.304081,3.282752 v 0 c -1.059346,1.43296 -4.853122,5.531284 -6.56358,5.721811 -1.90817,-0.153029 -5.583318,-4.290959 -6.642664,-5.723918 z"
       id="path8" /></g></svg>